<?xml version="1.0" standalone="no"?>
<!DOCTYPE svg PUBLIC "-//W3C//DTD SVG 20010904//EN"
 "http://www.w3.org/TR/2001/REC-SVG-20010904/DTD/svg10.dtd">
<svg version="1.0" xmlns="http://www.w3.org/2000/svg"
 width="724.000000pt" height="191.000000pt" viewBox="0 0 724.000000 191.000000"
 preserveAspectRatio="xMidYMid meet">

<g transform="translate(0.000000,191.000000) scale(0.100000,-0.100000)"
fill="#000000" stroke="none">
<path d="M469 1810 c-93 -25 -152 -60 -226 -130 -35 -34 -63 -64 -63 -67 0 -4
-9 -16 -19 -27 -24 -26 -67 -134 -82 -206 -14 -64 -7 -231 11 -275 37 -90 71
-155 80 -155 5 0 10 -6 10 -13 0 -22 223 -217 248 -217 5 0 17 -8 28 -18 22
-20 142 -92 153 -92 4 0 32 -13 62 -29 57 -30 144 -45 199 -35 76 16 97 148
29 185 -12 6 -60 21 -108 33 -84 21 -121 38 -185 83 -17 13 -42 28 -56 35 -14
7 -29 18 -35 24 -5 6 -30 26 -55 44 -25 19 -68 58 -96 87 -46 46 -53 60 -68
124 -9 39 -16 95 -16 123 0 66 23 153 48 180 11 11 21 26 23 32 8 20 85 81
134 105 49 24 53 24 350 24 296 0 301 0 350 -24 92 -44 145 -122 145 -212 0
-51 14 -59 101 -59 60 0 82 4 100 19 23 18 23 21 11 81 -15 69 -69 189 -89
197 -7 3 -13 10 -13 17 0 13 -66 77 -104 100 -14 9 -38 24 -53 33 -16 10 -57
25 -93 35 -97 26 -624 25 -721 -2z"/>
<path d="M2150 1391 c-59 -14 -133 -52 -164 -85 -98 -105 -75 -294 45 -366 52
-31 94 -50 109 -50 34 0 186 -69 203 -92 36 -48 20 -135 -31 -173 -23 -17 -43
-20 -127 -20 -90 0 -105 3 -149 28 -27 15 -54 27 -61 27 -6 0 -20 9 -30 20
-10 11 -22 20 -27 20 -4 0 -8 -33 -8 -74 0 -80 6 -90 80 -123 39 -17 164 -43
206 -43 47 0 194 34 203 47 3 5 20 19 37 30 17 12 43 41 59 63 27 38 29 50 29
128 0 93 -10 123 -59 175 -33 35 -128 83 -202 102 -115 30 -173 78 -173 145 0
61 66 110 149 110 66 0 221 -50 221 -72 0 -4 7 -8 15 -8 13 0 15 13 13 81 l-3
81 -75 25 c-80 26 -201 37 -260 24z"/>
<path d="M5520 940 l0 -461 78 3 77 3 3 163 2 162 119 0 c65 0 131 4 147 9 16
5 41 12 55 15 14 3 37 16 52 30 14 13 30 26 34 27 5 2 22 25 39 51 58 88 57
235 -2 323 -39 57 -57 71 -134 106 -52 22 -68 24 -262 27 l-208 3 0 -461z
m387 304 c63 -21 78 -36 94 -91 18 -65 1 -127 -48 -170 l-36 -33 -119 0 -118
0 0 155 0 155 90 0 c55 0 107 -6 137 -16z"/>
<path d="M6270 940 l0 -460 75 0 75 0 0 460 0 460 -75 0 -75 0 0 -460z"/>
<path d="M5070 1245 l0 -105 -70 0 -70 0 0 -55 0 -55 70 0 70 0 1 -187 c0
-228 6 -271 45 -316 47 -55 146 -80 229 -57 l46 13 -3 61 -3 61 -35 1 c-90 1
-96 3 -114 37 -15 27 -17 57 -14 207 l3 175 80 0 80 0 3 57 3 57 -83 3 -83 3
-3 103 -3 102 -74 0 -75 0 0 -105z"/>
<path d="M746 1296 c-33 -10 -41 -18 -53 -56 -31 -91 11 -140 121 -140 27 0
65 -9 88 -20 23 -11 45 -20 49 -20 8 0 129 -80 147 -97 7 -7 18 -13 23 -13 15
0 85 -57 144 -117 64 -64 101 -164 91 -242 -17 -130 -86 -232 -198 -292 l-63
-34 -335 0 -335 0 -59 38 c-32 21 -60 47 -63 58 -3 10 -8 19 -12 19 -17 0 -45
80 -51 140 l-5 65 -79 3 c-96 4 -116 -9 -116 -72 0 -57 32 -164 65 -217 63
-101 165 -183 277 -221 57 -19 90 -22 342 -25 340 -6 439 8 556 76 61 36 210
185 210 210 0 5 12 33 28 63 26 51 27 59 27 203 0 144 -1 152 -27 203 -16 30
-28 58 -28 64 0 22 -95 131 -153 174 -34 26 -67 52 -72 59 -6 7 -20 15 -33 19
-12 4 -22 11 -22 16 0 9 -119 85 -149 95 -12 3 -21 10 -21 14 0 20 -157 62
-224 60 -17 -1 -48 -6 -70 -13z"/>
<path d="M2867 1136 c-27 -13 -60 -36 -73 -52 l-23 -29 -1 48 0 47 -70 0 -70
0 0 -335 0 -336 78 3 77 3 5 225 c5 235 9 254 52 284 33 23 150 22 169 -1 37
-47 39 -61 39 -272 0 -115 3 -216 6 -225 5 -12 21 -16 75 -16 l69 0 0 133 c1
134 7 276 15 312 3 11 18 35 35 53 29 30 35 32 100 32 68 0 70 -1 97 -37 l28
-36 3 -229 3 -228 75 0 74 0 0 234 c0 190 -3 244 -17 287 -31 101 -112 159
-223 159 -73 0 -160 -35 -186 -75 -21 -32 -37 -32 -54 1 -8 14 -37 36 -66 50
-69 32 -151 33 -217 0z"/>
<path d="M3880 1136 c-107 -37 -100 -30 -100 -107 0 -49 4 -71 14 -75 7 -3 36
9 64 27 43 27 63 32 134 36 48 3 95 0 110 -6 31 -12 68 -65 68 -98 0 -20 -5
-21 -137 -25 -143 -4 -138 -2 -227 -56 -93 -56 -101 -228 -14 -309 33 -31 121
-63 172 -63 60 0 142 28 177 61 l29 27 0 -34 0 -34 76 0 76 0 -4 253 c-3 250
-3 252 -29 302 -35 65 -51 78 -127 104 -85 29 -194 28 -282 -3z m290 -373 c0
-75 -37 -135 -103 -165 -47 -22 -79 -23 -123 -2 -71 34 -86 101 -34 153 32 32
48 35 198 39 61 2 62 2 62 -25z"/>
<path d="M4715 1141 c-23 -10 -53 -33 -68 -50 l-27 -33 0 46 0 46 -75 0 -75 0
0 -335 0 -335 74 0 74 0 4 198 c4 215 9 236 69 294 35 34 65 42 130 36 l50 -5
-3 76 -3 76 -55 3 c-37 1 -68 -4 -95 -17z"/>
<path d="M6573 1142 l-81 -3 7 -27 c5 -15 20 -51 35 -79 14 -29 26 -57 26 -62
0 -6 14 -40 30 -76 17 -36 30 -70 30 -75 0 -6 11 -33 25 -62 14 -28 25 -58 25
-65 0 -8 12 -37 26 -65 46 -91 55 -133 37 -184 -18 -53 -55 -82 -116 -90 -42
-6 -45 -9 -51 -43 -3 -20 -6 -51 -6 -68 l0 -33 66 0 c110 0 178 47 236 161 41
83 98 217 98 231 0 6 7 24 15 41 8 18 23 57 34 87 10 30 29 80 41 110 24 59
65 161 99 248 l20 52 -80 0 -79 0 -25 -56 c-14 -31 -25 -62 -25 -69 0 -7 -13
-43 -30 -80 -16 -37 -30 -73 -30 -81 0 -8 -13 -44 -30 -81 -16 -36 -30 -73
-30 -82 0 -22 -27 31 -44 87 -7 26 -25 73 -40 106 -14 32 -26 64 -26 72 0 7
-13 42 -30 77 -16 36 -30 74 -30 86 0 26 -1 26 -97 23z"/>
</g>
</svg>
